<?xml version="1.0" standalone="no"?>
<!DOCTYPE svg PUBLIC "-//W3C//DTD SVG 20010904//EN"
 "http://www.w3.org/TR/2001/REC-SVG-20010904/DTD/svg10.dtd">
<svg version="1.0" xmlns="http://www.w3.org/2000/svg"
 width="128.000000pt" height="128.000000pt" viewBox="0 0 128.000000 128.000000"
 preserveAspectRatio="xMidYMid meet">
<metadata>
Created by potrace 1.11, written by Peter Selinger 2001-2013
</metadata>
<g transform="translate(0.000000,128.000000) scale(0.100000,-0.100000)"
fill="#000000" stroke="none">
<path d="M220 1089 c1 -105 0 -192 -2 -194 -2 -2 -1 -110 2 -240 3 -130 3
-238 0 -240 -3 -2 -4 -96 -2 -209 l3 -206 119 0 120 0 0 640 0 640 -120 0
-121 0 1 -191z"/>
<path d="M908 959 c-6 -4 -18 -5 -27 -2 -11 3 -30 -11 -54 -39 -20 -24 -48
-55 -61 -69 -14 -15 -22 -30 -19 -33 3 -3 -2 -8 -11 -12 -9 -3 -16 -10 -16
-15 0 -5 -8 -17 -17 -27 -33 -35 -63 -72 -57 -72 3 0 -7 -13 -23 -29 -15 -16
-35 -39 -43 -51 -8 -12 -20 -28 -27 -35 -11 -12 -23 -135 -12 -135 3 0 4 -10
2 -22 -2 -15 7 -35 27 -57 16 -18 30 -36 30 -40 0 -3 15 -22 33 -41 18 -19 52
-61 76 -92 24 -32 48 -58 54 -58 6 0 8 -3 4 -6 -3 -3 2 -14 11 -23 31 -32 52
-61 46 -61 -4 0 5 -9 19 -20 22 -18 40 -20 166 -20 80 0 141 4 141 9 0 5 -12
19 -27 31 -16 12 -26 24 -23 26 3 2 -7 17 -22 33 -16 16 -28 32 -28 35 0 3
-10 16 -22 29 -28 30 -55 62 -88 107 -14 19 -33 42 -42 52 -10 10 -16 18 -13
18 2 0 -8 14 -23 31 -15 16 -38 43 -52 59 -14 15 -26 34 -28 41 -4 18 19 60
30 53 4 -3 8 4 8 15 0 12 5 20 12 19 7 -2 12 2 13 7 0 6 6 17 13 25 23 28 54
65 75 93 12 15 31 38 42 51 11 12 31 37 45 56 14 18 37 47 52 64 14 16 24 35
21 40 -3 5 -2 6 4 3 11 -7 58 51 49 60 -3 4 -6 3 -6 -1 0 -4 -9 -2 -19 4 -13
7 -22 7 -26 0 -4 -6 -13 -7 -24 -1 -10 6 -23 6 -31 1 -8 -5 -18 -6 -23 -3 -12
7 -97 9 -109 2z"/>
</g>
</svg>
